<svg width="97" height="97" viewBox="0 0 97 97" fill="none" xmlns="http://www.w3.org/2000/svg">
<g id="icon-certification-gradient-fill.svg">
<path id="Vector" d="M49.6951 47.2999L62.4951 34.4999C62.7952 34.1998 62.7952 33.6998 62.4951 33.3999L58.7951 29.6999C58.4952 29.3998 57.9952 29.3998 57.6951 29.6999L45.3951 41.7999C45.0952 42.0998 44.5952 42.0998 44.295 41.7999L40.3951 37.8999C40.0951 37.6 39.5951 37.6 39.2952 37.8999L35.5951 41.5999C35.2951 41.8998 35.2951 42.4 35.5951 42.6999L40.0951 47.2L44.3951 51.4998C44.6951 51.7999 45.1951 51.7999 45.495 51.4998L48.7951 48.1999L49.6951 47.2999Z" fill="#0077C5"/>
<path id="Vector_2" d="M49.6951 47.2999L62.4951 34.4999C62.7952 34.1998 62.7952 33.6998 62.4951 33.3999L58.7951 29.6999C58.4952 29.3998 57.9952 29.3998 57.6951 29.6999L45.3951 41.7999C45.0952 42.0998 44.5952 42.0998 44.295 41.7999L40.3951 37.8999C40.0951 37.6 39.5951 37.6 39.2952 37.8999L35.5951 41.5999C35.2951 41.8998 35.2951 42.4 35.5951 42.6999L40.0951 47.2L44.3951 51.4998C44.6951 51.7999 45.1951 51.7999 45.495 51.4998L48.7951 48.1999L49.6951 47.2999Z" fill="url(#paint0_linear_4_2366)"/>
<path id="Vector_3" d="M78.795 38L75.695 36.1L78.1951 33.4C78.595 32.9 78.795 32.3 78.595 31.6001C78.3949 31 77.995 30.5 77.295 30.3L73.795 29.2001L75.495 26C75.7951 25.4001 75.7951 24.7001 75.495 24.2001C75.195 23.6 74.5951 23.3 73.8951 23.3L70.2951 23.2001L71.095 19.7C71.1949 19.1 71.095 18.4001 70.595 17.9C70.095 17.4 69.4949 17.2001 68.7951 17.4L65.295 18.2001L65.1949 14.6C65.1949 13.9 64.795 13.4 64.2951 13C63.695 12.7 63.0951 12.7 62.495 13L59.295 14.7L58.195 11.2C57.9951 10.6 57.4949 10.1 56.895 9.90004C56.2949 9.70004 55.5949 9.90004 55.095 10.3L52.395 12.8L50.495 9.70004C50.195 9.10004 49.5951 8.80005 48.8951 8.80005C48.1951 8.80005 47.6951 9.10004 47.295 9.70004L45.395 12.8L42.6951 10.3C42.1951 9.90004 41.595 9.70004 40.895 9.90004C40.2951 10.1 39.7951 10.5 39.595 11.2L38.495 14.7L35.295 13C34.695 12.7 33.9951 12.7 33.4949 13C32.895 13.3 32.5951 13.9 32.5951 14.6L32.495 18.2001L28.9951 17.4C28.395 17.3 27.695 17.4 27.195 17.9C26.695 18.4001 26.5951 19 26.695 19.7L27.4949 23.2001L23.995 23.3C23.295 23.3 22.795 23.7001 22.395 24.2001C22.095 24.8 22.095 25.4001 22.395 26L24.095 29.2001L20.5951 30.3C19.995 30.5 19.495 31 19.295 31.6001C19.095 32.2 19.295 32.9 19.695 33.4L22.195 36.1L19.095 38C18.495 38.3 18.1951 38.9 18.1951 39.6001C18.1951 40.3001 18.495 40.8001 19.095 41.2001L22.195 43.1L19.695 45.8001C19.295 46.3001 19.095 46.9 19.295 47.6C19.495 48.2001 19.8951 48.7001 20.5951 48.9001L24.095 50L22.395 53.2001C22.095 53.8 22.095 54.5 22.395 55C22.695 55.6001 23.295 55.9001 23.995 55.9001L27.595 56L26.7951 59.5001C26.695 60.1 26.7951 60.8 27.2951 61.3C27.7951 61.8 28.395 61.9001 29.095 61.8L32.5951 61L32.695 64.6C32.695 65.3 33.0951 65.8 33.595 66.2001C34.195 66.5 34.795 66.5 35.395 66.2001L38.5951 64.5001L39.695 68C39.895 68.6001 40.395 69.1001 40.9951 69.3001C41.1951 69.3001 41.295 69.4 41.4951 69.4C41.995 69.4 42.3951 69.2 42.795 68.9001L45.4949 66.4001C45.7951 66.8 46.395 66.9001 46.795 66.6C47.295 66.3 47.395 65.7001 47.095 65.2001C46.795 64.7 46.2951 64.4 45.7951 64.3001C45.195 64.2 44.695 64.4 44.295 64.8001L41.6951 67.2001L40.695 63.8001C40.4951 63.3001 40.095 62.8001 39.595 62.6001C39.0951 62.4001 38.495 62.4001 37.995 62.7L34.795 64.4L34.695 60.8C34.695 60.2001 34.395 59.7001 33.9951 59.4C33.595 59.1 32.995 58.9 32.395 59.1L28.895 59.9001L29.6951 56.4001C29.795 55.9001 29.6951 55.3 29.395 54.8C29.095 54.4001 28.4951 54.1 27.9951 54.1L24.3951 54.0001L26.0951 50.8001C26.395 50.3 26.395 49.7 26.195 49.2001C25.995 48.7001 25.5951 48.3 24.995 48.1L21.595 47.1L23.995 44.5C24.3951 44.1001 24.595 43.5 24.495 43C24.3951 42.4001 24.095 41.9 23.595 41.7001L20.5951 39.8001L23.595 37.9001C24.095 37.6001 24.3951 37.1 24.495 36.6C24.595 36.1 24.3951 35.5001 23.995 35.1L21.595 32.5L24.995 31.5C25.495 31.3 25.995 30.9001 26.195 30.4001C26.395 29.9 26.395 29.3 26.0951 28.8001L24.3951 25.6001L27.9951 25.5C28.595 25.5 29.095 25.2001 29.395 24.8C29.6951 24.4001 29.8949 23.8 29.6951 23.2001L28.895 19.7L32.395 20.5C32.895 20.6001 33.4949 20.5 33.9951 20.2C34.395 19.9001 34.695 19.3 34.695 18.8L34.795 15.2L37.995 16.9C38.495 17.2001 39.0951 17.2001 39.595 17.0001C40.095 16.8001 40.4951 16.4 40.695 15.8L41.6951 12.4L44.295 14.8C44.695 15.2 45.2951 15.4 45.7951 15.3C46.395 15.2 46.895 14.9 47.095 14.4L48.995 11.4L50.895 14.4C51.195 14.9 51.695 15.2 52.195 15.3C52.795 15.4 53.295 15.2 53.6951 14.8L56.295 12.4L57.2951 15.8C57.4949 16.3001 57.895 16.8001 58.395 17.0001C58.895 17.2001 59.4951 17.2001 59.995 16.9L63.195 15.2L63.2951 18.8C63.2951 19.4001 63.595 19.9001 63.9949 20.2C64.395 20.5 64.9951 20.7 65.595 20.5L69.0951 19.7L68.295 23.2001C68.195 23.7001 68.295 24.3 68.5951 24.8C68.895 25.2001 69.495 25.5 69.9949 25.5L73.5949 25.6001L72.095 28.5001C71.795 29.0001 71.795 29.6 71.995 30.1C72.1951 30.6 72.595 31 73.195 31.2001L76.595 32.2L74.195 34.8001C73.795 35.2001 73.5949 35.8 73.695 36.3C73.795 36.8 74.0951 37.4001 74.5951 37.6001L77.595 39.5L74.5951 41.4C74.0951 41.7001 73.795 42.2001 73.695 42.7001C73.5949 43.3 73.795 43.8 74.195 44.2L76.595 46.8001L73.195 47.8C72.6951 48.0001 72.1951 48.4001 71.995 48.9001C71.795 49.4001 71.795 50 72.095 50.5L73.795 53.7001L70.195 53.8C69.595 53.8 69.0951 54.1 68.7951 54.5C68.495 54.9001 68.2949 55.5 68.495 56.1001L69.2951 59.6L65.795 58.8001C65.295 58.7 64.695 58.8001 64.195 59.1C63.695 59.4 63.495 60.0001 63.495 60.5L63.395 64.1L60.1951 62.4001C59.6951 62.1001 59.095 62.1001 58.595 62.3C58.095 62.5 57.695 62.9 57.495 63.5L56.495 66.9001L53.895 64.5001C53.4951 64.1 52.895 63.9 52.395 64.0001C51.7951 64.1 51.2951 64.4 51.0951 64.9L37.995 85.8C37.8951 85.9001 37.795 86 37.695 86.1001C37.5951 86.2 37.3951 86.2 37.295 86.1001C37.195 86.1001 36.995 86 36.8951 85.9001C36.795 85.8 36.6951 85.7 36.6951 85.5L34.795 77.1C34.695 76.7 34.595 76.4 34.395 76.1C34.195 75.8001 33.895 75.6001 33.595 75.4C33.2951 75.2 32.995 75.1001 32.5951 75C32.195 74.9 31.8951 74.9 31.495 75L23.095 76.9C22.9951 76.9 22.795 76.9 22.695 76.9C22.595 76.9 22.4951 76.8001 22.395 76.7C22.2951 76.6 22.2951 76.5001 22.2951 76.3001C22.2951 76.2 22.2951 76.0001 22.395 75.9L28.795 65.6C29.095 65.1 28.9951 64.5001 28.4951 64.2C27.9951 63.9 27.395 64.0001 27.0951 64.5001L20.695 74.8001C20.395 75.3001 20.295 75.8001 20.295 76.4C20.295 76.9 20.495 77.4 20.7951 77.8C21.0951 78.2001 21.4949 78.5001 21.9951 78.7001C22.4951 78.9001 23.095 78.9001 23.595 78.8L31.995 76.9C32.0951 76.9 32.195 76.9 32.295 76.9C32.395 76.9 32.495 76.9 32.5951 77.0001C32.695 77.0001 32.695 77.1 32.7951 77.2001C32.895 77.3 32.895 77.4 32.895 77.5001L34.795 85.9001C34.895 86.4001 35.1949 86.9 35.595 87.3001C35.995 87.6001 36.495 87.9 36.995 87.9C37.195 87.9 37.295 87.9 37.495 87.9C37.8951 87.9 38.195 87.8001 38.495 87.7C38.995 87.5 39.395 87.1001 39.695 86.6001L48.995 72.0001L58.2951 86.9C58.4951 87.1001 58.595 87.4 58.895 87.5C59.095 87.7 59.295 87.8001 59.595 87.9C59.795 88.0001 60.095 88.1 60.295 88.1C60.3949 88.1 60.495 88.1 60.595 88.1C60.795 88.1 60.8951 88.1 60.995 88.1C61.295 88.1 61.495 88.0001 61.695 87.9C61.8951 87.8001 62.195 87.6001 62.295 87.5C62.495 87.3001 62.695 87.1001 62.7949 86.9C62.895 86.7 62.995 86.4001 63.0951 86.1001L64.9951 77.7001V77.6C64.9951 77.6 64.9951 77.5001 65.095 77.5001L65.1949 77.4L65.295 77.3C65.295 77.3 65.395 77.3 65.395 77.2001H65.4951H65.595H65.6951L74.0951 79.1C74.395 79.2001 74.695 79.2001 74.895 79.2001C75.195 79.2001 75.395 79.1 75.695 79C75.895 78.9001 76.195 78.8 76.395 78.6C76.595 78.4001 76.795 78.3 76.895 78.1C76.9951 77.9 77.1949 77.7001 77.1949 77.4C77.295 77.2001 77.295 76.9 77.395 76.6C77.395 76.3001 77.395 76.1001 77.295 75.8001C77.1951 75.5 77.095 75.3001 76.9951 75L70.595 64.7C70.2951 64.2 69.695 64.1 69.195 64.4C68.695 64.7001 68.5951 65.3 68.895 65.8L75.2951 76.1C75.2951 76.2 75.395 76.2 75.395 76.3001C75.395 76.4 75.395 76.4 75.395 76.5001C75.395 76.6 75.395 76.6 75.395 76.7C75.395 76.8001 75.2951 76.8001 75.2951 76.9C75.2951 77.0001 75.195 77.0001 75.195 77.0001C75.0951 77.0001 75.0951 77.1 74.995 77.1C74.895 77.1 74.895 77.1 74.7951 77.1C74.695 77.1 74.695 77.1 74.5951 77.1L66.1951 75.2C65.995 75.2 65.795 75.1001 65.6951 75.1001C65.4951 75.1001 65.295 75.1001 65.1949 75.1001C64.9951 75.1001 64.895 75.2 64.695 75.2C64.4951 75.3001 64.395 75.3001 64.195 75.4C64.095 75.5 63.895 75.6001 63.7951 75.7C63.695 75.8001 63.595 75.9 63.495 76.1C63.395 76.2 63.2951 76.4 63.195 76.6C63.0951 76.8001 63.0951 76.9 62.995 77.1L61.095 85.5C61.095 85.6001 61.095 85.7001 60.995 85.7001C60.995 85.8 60.8951 85.8 60.8951 85.9001C60.8951 85.9001 60.795 86 60.6951 86C60.595 86 60.595 86 60.495 86.1001C60.3949 86.1001 60.3949 86.1001 60.295 86.1001C60.1951 86.1001 60.1951 86.1001 60.095 86.1001C59.995 86.1001 59.995 86 59.895 86C59.795 86 59.795 85.9001 59.795 85.8L50.0951 70.3001C50.0951 70.2 49.995 70.2 49.8951 70.1L52.2951 66.3L54.995 68.8001C55.495 69.2 56.0951 69.4 56.7949 69.2C57.395 69 57.895 68.6001 58.095 67.9001L59.1951 64.4L62.395 66.1C62.995 66.4001 63.695 66.4001 64.195 66.1C64.795 65.8 65.095 65.2001 65.095 64.5001L65.1949 60.9001L68.695 61.7C69.2951 61.8 69.9949 61.7001 70.4951 61.2001C70.9951 60.7001 71.095 60.1 70.9951 59.4L70.195 55.9001L73.795 55.8C74.495 55.8 74.995 55.4001 75.395 54.9001C75.695 54.3 75.695 53.7001 75.395 53.1L73.695 49.9001L77.1949 48.8C77.795 48.6 78.295 48.1 78.495 47.5001C78.6951 46.9 78.495 46.2 78.095 45.7L75.595 43L78.6951 41.1C79.295 40.8001 79.5949 40.2 79.5949 39.5C79.5949 38.8001 79.3951 38.3 78.795 38Z" fill="#0077C5"/>
<path id="Vector_4" d="M78.795 38L75.695 36.1L78.1951 33.4C78.595 32.9 78.795 32.3 78.595 31.6001C78.3949 31 77.995 30.5 77.295 30.3L73.795 29.2001L75.495 26C75.7951 25.4001 75.7951 24.7001 75.495 24.2001C75.195 23.6 74.5951 23.3 73.8951 23.3L70.2951 23.2001L71.095 19.7C71.1949 19.1 71.095 18.4001 70.595 17.9C70.095 17.4 69.4949 17.2001 68.7951 17.4L65.295 18.2001L65.1949 14.6C65.1949 13.9 64.795 13.4 64.2951 13C63.695 12.7 63.0951 12.7 62.495 13L59.295 14.7L58.195 11.2C57.9951 10.6 57.4949 10.1 56.895 9.90004C56.2949 9.70004 55.5949 9.90004 55.095 10.3L52.395 12.8L50.495 9.70004C50.195 9.10004 49.5951 8.80005 48.8951 8.80005C48.1951 8.80005 47.6951 9.10004 47.295 9.70004L45.395 12.8L42.6951 10.3C42.1951 9.90004 41.595 9.70004 40.895 9.90004C40.2951 10.1 39.7951 10.5 39.595 11.2L38.495 14.7L35.295 13C34.695 12.7 33.9951 12.7 33.4949 13C32.895 13.3 32.5951 13.9 32.5951 14.6L32.495 18.2001L28.9951 17.4C28.395 17.3 27.695 17.4 27.195 17.9C26.695 18.4001 26.5951 19 26.695 19.7L27.4949 23.2001L23.995 23.3C23.295 23.3 22.795 23.7001 22.395 24.2001C22.095 24.8 22.095 25.4001 22.395 26L24.095 29.2001L20.5951 30.3C19.995 30.5 19.495 31 19.295 31.6001C19.095 32.2 19.295 32.9 19.695 33.4L22.195 36.1L19.095 38C18.495 38.3 18.1951 38.9 18.1951 39.6001C18.1951 40.3001 18.495 40.8001 19.095 41.2001L22.195 43.1L19.695 45.8001C19.295 46.3001 19.095 46.9 19.295 47.6C19.495 48.2001 19.8951 48.7001 20.5951 48.9001L24.095 50L22.395 53.2001C22.095 53.8 22.095 54.5 22.395 55C22.695 55.6001 23.295 55.9001 23.995 55.9001L27.595 56L26.7951 59.5001C26.695 60.1 26.7951 60.8 27.2951 61.3C27.7951 61.8 28.395 61.9001 29.095 61.8L32.5951 61L32.695 64.6C32.695 65.3 33.0951 65.8 33.595 66.2001C34.195 66.5 34.795 66.5 35.395 66.2001L38.5951 64.5001L39.695 68C39.895 68.6001 40.395 69.1001 40.9951 69.3001C41.1951 69.3001 41.295 69.4 41.4951 69.4C41.995 69.4 42.3951 69.2 42.795 68.9001L45.4949 66.4001C45.7951 66.8 46.395 66.9001 46.795 66.6C47.295 66.3 47.395 65.7001 47.095 65.2001C46.795 64.7 46.2951 64.4 45.7951 64.3001C45.195 64.2 44.695 64.4 44.295 64.8001L41.6951 67.2001L40.695 63.8001C40.4951 63.3001 40.095 62.8001 39.595 62.6001C39.0951 62.4001 38.495 62.4001 37.995 62.7L34.795 64.4L34.695 60.8C34.695 60.2001 34.395 59.7001 33.9951 59.4C33.595 59.1 32.995 58.9 32.395 59.1L28.895 59.9001L29.6951 56.4001C29.795 55.9001 29.6951 55.3 29.395 54.8C29.095 54.4001 28.4951 54.1 27.9951 54.1L24.3951 54.0001L26.0951 50.8001C26.395 50.3 26.395 49.7 26.195 49.2001C25.995 48.7001 25.5951 48.3 24.995 48.1L21.595 47.1L23.995 44.5C24.3951 44.1001 24.595 43.5 24.495 43C24.3951 42.4001 24.095 41.9 23.595 41.7001L20.5951 39.8001L23.595 37.9001C24.095 37.6001 24.3951 37.1 24.495 36.6C24.595 36.1 24.3951 35.5001 23.995 35.1L21.595 32.5L24.995 31.5C25.495 31.3 25.995 30.9001 26.195 30.4001C26.395 29.9 26.395 29.3 26.0951 28.8001L24.3951 25.6001L27.9951 25.5C28.595 25.5 29.095 25.2001 29.395 24.8C29.6951 24.4001 29.8949 23.8 29.6951 23.2001L28.895 19.7L32.395 20.5C32.895 20.6001 33.4949 20.5 33.9951 20.2C34.395 19.9001 34.695 19.3 34.695 18.8L34.795 15.2L37.995 16.9C38.495 17.2001 39.0951 17.2001 39.595 17.0001C40.095 16.8001 40.4951 16.4 40.695 15.8L41.6951 12.4L44.295 14.8C44.695 15.2 45.2951 15.4 45.7951 15.3C46.395 15.2 46.895 14.9 47.095 14.4L48.995 11.4L50.895 14.4C51.195 14.9 51.695 15.2 52.195 15.3C52.795 15.4 53.295 15.2 53.6951 14.8L56.295 12.4L57.2951 15.8C57.4949 16.3001 57.895 16.8001 58.395 17.0001C58.895 17.2001 59.4951 17.2001 59.995 16.9L63.195 15.2L63.2951 18.8C63.2951 19.4001 63.595 19.9001 63.9949 20.2C64.395 20.5 64.9951 20.7 65.595 20.5L69.0951 19.7L68.295 23.2001C68.195 23.7001 68.295 24.3 68.5951 24.8C68.895 25.2001 69.495 25.5 69.9949 25.5L73.5949 25.6001L72.095 28.5001C71.795 29.0001 71.795 29.6 71.995 30.1C72.1951 30.6 72.595 31 73.195 31.2001L76.595 32.2L74.195 34.8001C73.795 35.2001 73.5949 35.8 73.695 36.3C73.795 36.8 74.0951 37.4001 74.5951 37.6001L77.595 39.5L74.5951 41.4C74.0951 41.7001 73.795 42.2001 73.695 42.7001C73.5949 43.3 73.795 43.8 74.195 44.2L76.595 46.8001L73.195 47.8C72.6951 48.0001 72.1951 48.4001 71.995 48.9001C71.795 49.4001 71.795 50 72.095 50.5L73.795 53.7001L70.195 53.8C69.595 53.8 69.0951 54.1 68.7951 54.5C68.495 54.9001 68.2949 55.5 68.495 56.1001L69.2951 59.6L65.795 58.8001C65.295 58.7 64.695 58.8001 64.195 59.1C63.695 59.4 63.495 60.0001 63.495 60.5L63.395 64.1L60.1951 62.4001C59.6951 62.1001 59.095 62.1001 58.595 62.3C58.095 62.5 57.695 62.9 57.495 63.5L56.495 66.9001L53.895 64.5001C53.4951 64.1 52.895 63.9 52.395 64.0001C51.7951 64.1 51.2951 64.4 51.0951 64.9L37.995 85.8C37.8951 85.9001 37.795 86 37.695 86.1001C37.5951 86.2 37.3951 86.2 37.295 86.1001C37.195 86.1001 36.995 86 36.8951 85.9001C36.795 85.8 36.6951 85.7 36.6951 85.5L34.795 77.1C34.695 76.7 34.595 76.4 34.395 76.1C34.195 75.8001 33.895 75.6001 33.595 75.4C33.2951 75.2 32.995 75.1001 32.5951 75C32.195 74.9 31.8951 74.9 31.495 75L23.095 76.9C22.9951 76.9 22.795 76.9 22.695 76.9C22.595 76.9 22.4951 76.8001 22.395 76.7C22.2951 76.6 22.2951 76.5001 22.2951 76.3001C22.2951 76.2 22.2951 76.0001 22.395 75.9L28.795 65.6C29.095 65.1 28.9951 64.5001 28.4951 64.2C27.9951 63.9 27.395 64.0001 27.0951 64.5001L20.695 74.8001C20.395 75.3001 20.295 75.8001 20.295 76.4C20.295 76.9 20.495 77.4 20.7951 77.8C21.0951 78.2001 21.4949 78.5001 21.9951 78.7001C22.4951 78.9001 23.095 78.9001 23.595 78.8L31.995 76.9C32.0951 76.9 32.195 76.9 32.295 76.9C32.395 76.9 32.495 76.9 32.5951 77.0001C32.695 77.0001 32.695 77.1 32.7951 77.2001C32.895 77.3 32.895 77.4 32.895 77.5001L34.795 85.9001C34.895 86.4001 35.1949 86.9 35.595 87.3001C35.995 87.6001 36.495 87.9 36.995 87.9C37.195 87.9 37.295 87.9 37.495 87.9C37.8951 87.9 38.195 87.8001 38.495 87.7C38.995 87.5 39.395 87.1001 39.695 86.6001L48.995 72.0001L58.2951 86.9C58.4951 87.1001 58.595 87.4 58.895 87.5C59.095 87.7 59.295 87.8001 59.595 87.9C59.795 88.0001 60.095 88.1 60.295 88.1C60.3949 88.1 60.495 88.1 60.595 88.1C60.795 88.1 60.8951 88.1 60.995 88.1C61.295 88.1 61.495 88.0001 61.695 87.9C61.8951 87.8001 62.195 87.6001 62.295 87.5C62.495 87.3001 62.695 87.1001 62.7949 86.9C62.895 86.7 62.995 86.4001 63.0951 86.1001L64.9951 77.7001V77.6C64.9951 77.6 64.9951 77.5001 65.095 77.5001L65.1949 77.4L65.295 77.3C65.295 77.3 65.395 77.3 65.395 77.2001H65.4951H65.595H65.6951L74.0951 79.1C74.395 79.2001 74.695 79.2001 74.895 79.2001C75.195 79.2001 75.395 79.1 75.695 79C75.895 78.9001 76.195 78.8 76.395 78.6C76.595 78.4001 76.795 78.3 76.895 78.1C76.9951 77.9 77.1949 77.7001 77.1949 77.4C77.295 77.2001 77.295 76.9 77.395 76.6C77.395 76.3001 77.395 76.1001 77.295 75.8001C77.1951 75.5 77.095 75.3001 76.9951 75L70.595 64.7C70.2951 64.2 69.695 64.1 69.195 64.4C68.695 64.7001 68.5951 65.3 68.895 65.8L75.2951 76.1C75.2951 76.2 75.395 76.2 75.395 76.3001C75.395 76.4 75.395 76.4 75.395 76.5001C75.395 76.6 75.395 76.6 75.395 76.7C75.395 76.8001 75.2951 76.8001 75.2951 76.9C75.2951 77.0001 75.195 77.0001 75.195 77.0001C75.0951 77.0001 75.0951 77.1 74.995 77.1C74.895 77.1 74.895 77.1 74.7951 77.1C74.695 77.1 74.695 77.1 74.5951 77.1L66.1951 75.2C65.995 75.2 65.795 75.1001 65.6951 75.1001C65.4951 75.1001 65.295 75.1001 65.1949 75.1001C64.9951 75.1001 64.895 75.2 64.695 75.2C64.4951 75.3001 64.395 75.3001 64.195 75.4C64.095 75.5 63.895 75.6001 63.7951 75.7C63.695 75.8001 63.595 75.9 63.495 76.1C63.395 76.2 63.2951 76.4 63.195 76.6C63.0951 76.8001 63.0951 76.9 62.995 77.1L61.095 85.5C61.095 85.6001 61.095 85.7001 60.995 85.7001C60.995 85.8 60.8951 85.8 60.8951 85.9001C60.8951 85.9001 60.795 86 60.6951 86C60.595 86 60.595 86 60.495 86.1001C60.3949 86.1001 60.3949 86.1001 60.295 86.1001C60.1951 86.1001 60.1951 86.1001 60.095 86.1001C59.995 86.1001 59.995 86 59.895 86C59.795 86 59.795 85.9001 59.795 85.8L50.0951 70.3001C50.0951 70.2 49.995 70.2 49.8951 70.1L52.2951 66.3L54.995 68.8001C55.495 69.2 56.0951 69.4 56.7949 69.2C57.395 69 57.895 68.6001 58.095 67.9001L59.1951 64.4L62.395 66.1C62.995 66.4001 63.695 66.4001 64.195 66.1C64.795 65.8 65.095 65.2001 65.095 64.5001L65.1949 60.9001L68.695 61.7C69.2951 61.8 69.9949 61.7001 70.4951 61.2001C70.9951 60.7001 71.095 60.1 70.9951 59.4L70.195 55.9001L73.795 55.8C74.495 55.8 74.995 55.4001 75.395 54.9001C75.695 54.3 75.695 53.7001 75.395 53.1L73.695 49.9001L77.1949 48.8C77.795 48.6 78.295 48.1 78.495 47.5001C78.6951 46.9 78.495 46.2 78.095 45.7L75.595 43L78.6951 41.1C79.295 40.8001 79.5949 40.2 79.5949 39.5C79.5949 38.8001 79.3951 38.3 78.795 38Z" fill="url(#paint1_linear_4_2366)"/>
<path id="Vector_5" d="M67.495 28.9C64.6949 24.0001 60.095 20.4001 54.595 19C48.995 17.5001 43.295 18.3 38.2949 21.1001C28.095 27 24.595 40.0001 30.495 50.2C34.395 57 41.595 60.9001 48.995 60.9001C52.595 60.9001 56.2949 60.0001 59.595 58.0001C69.7951 52.2 73.295 39.1001 67.495 28.9ZM43.995 58.2C38.995 56.9001 34.895 53.7001 32.2949 49.2001C26.995 40.0001 30.095 28.1001 39.395 22.8001C42.3951 21.1001 45.695 20.2 48.995 20.2C50.695 20.2 52.395 20.4001 53.995 20.9001C58.9951 22.2 63.095 25.4001 65.6951 29.9001C70.9951 39.1001 67.895 51 58.595 56.3001C54.1951 58.9 48.995 59.6 43.995 58.2Z" fill="#0077C5"/>
<path id="Vector_6" d="M67.495 28.9C64.6949 24.0001 60.095 20.4001 54.595 19C48.995 17.5001 43.295 18.3 38.2949 21.1001C28.095 27 24.595 40.0001 30.495 50.2C34.395 57 41.595 60.9001 48.995 60.9001C52.595 60.9001 56.2949 60.0001 59.595 58.0001C69.7951 52.2 73.295 39.1001 67.495 28.9ZM43.995 58.2C38.995 56.9001 34.895 53.7001 32.2949 49.2001C26.995 40.0001 30.095 28.1001 39.395 22.8001C42.3951 21.1001 45.695 20.2 48.995 20.2C50.695 20.2 52.395 20.4001 53.995 20.9001C58.9951 22.2 63.095 25.4001 65.6951 29.9001C70.9951 39.1001 67.895 51 58.595 56.3001C54.1951 58.9 48.995 59.6 43.995 58.2Z" fill="url(#paint2_linear_4_2366)"/>
<path id="Vector_7" d="M63.1951 32.7L59.4952 29.0001C58.7952 28.3001 57.6951 28.3001 56.9951 29.0001L44.8952 41.0001L41.0952 37.2001C40.3951 36.5001 39.2952 36.5001 38.5952 37.2001L34.8951 40.9C34.1951 41.6 34.1951 42.7001 34.8951 43.4001L39.1951 47.7001C39.1951 47.8001 39.2952 47.9001 39.3952 47.9001L43.6952 52.2C43.9951 52.5001 44.4951 52.7001 44.9951 52.7001C45.4951 52.7001 45.8952 52.5001 46.2952 52.2L50.5952 47.9001L63.3952 35.1C63.8952 34.5001 63.8952 33.4001 63.1951 32.7ZM44.7951 50.7L40.7952 46.7001C40.7952 46.6001 40.6951 46.5001 40.5952 46.5001L36.2952 42.2001L39.7952 38.8001L43.5951 42.6C44.2951 43.3 45.4951 43.3 46.0952 42.6L58.1951 30.5001L61.6952 34.0001L44.7951 50.7Z" fill="#0077C5"/>
<path id="Vector_8" d="M63.1951 32.7L59.4952 29.0001C58.7952 28.3001 57.6951 28.3001 56.9951 29.0001L44.8952 41.0001L41.0952 37.2001C40.3951 36.5001 39.2952 36.5001 38.5952 37.2001L34.8951 40.9C34.1951 41.6 34.1951 42.7001 34.8951 43.4001L39.1951 47.7001C39.1951 47.8001 39.2952 47.9001 39.3952 47.9001L43.6952 52.2C43.9951 52.5001 44.4951 52.7001 44.9951 52.7001C45.4951 52.7001 45.8952 52.5001 46.2952 52.2L50.5952 47.9001L63.3952 35.1C63.8952 34.5001 63.8952 33.4001 63.1951 32.7ZM44.7951 50.7L40.7952 46.7001C40.7952 46.6001 40.6951 46.5001 40.5952 46.5001L36.2952 42.2001L39.7952 38.8001L43.5951 42.6C44.2951 43.3 45.4951 43.3 46.0952 42.6L58.1951 30.5001L61.6952 34.0001L44.7951 50.7Z" fill="url(#paint3_linear_4_2366)"/>
</g>
<defs>
<linearGradient id="paint0_linear_4_2366" x1="62.7201" y1="29.4749" x2="32.1232" y2="45.5414" gradientUnits="userSpaceOnUse">
<stop offset="0.135417" stop-color="#4E2B8F"/>
<stop offset="0.859375" stop-color="#4E2B8F" stop-opacity="0"/>
</linearGradient>
<linearGradient id="paint1_linear_4_2366" x1="79.5949" y1="8.80005" x2="0.607202" y2="34.926" gradientUnits="userSpaceOnUse">
<stop offset="0.135417" stop-color="#4E2B8F"/>
<stop offset="0.859375" stop-color="#4E2B8F" stop-opacity="0"/>
</linearGradient>
<linearGradient id="paint2_linear_4_2366" x1="70.2924" y1="18.2557" x2="18.8066" y2="40.26" gradientUnits="userSpaceOnUse">
<stop offset="0.135417" stop-color="#4E2B8F"/>
<stop offset="0.859375" stop-color="#4E2B8F" stop-opacity="0"/>
</linearGradient>
<linearGradient id="paint3_linear_4_2366" x1="63.7483" y1="28.4751" x2="30.6921" y2="45.6001" gradientUnits="userSpaceOnUse">
<stop offset="0.135417" stop-color="#4E2B8F"/>
<stop offset="0.859375" stop-color="#4E2B8F" stop-opacity="0"/>
</linearGradient>
</defs>
</svg>
